<?xml version="1.0" encoding="utf-8"?>
<!-- Generator: Adobe Illustrator 24.1.0, SVG Export Plug-In . SVG Version: 6.00 Build 0)  -->
<svg version="1.1" id="Capa_1" xmlns="http://www.w3.org/2000/svg" xmlns:xlink="http://www.w3.org/1999/xlink" x="0px" y="0px"
	 viewBox="0 0 400 168" style="enable-background:new 0 0 400 168;" xml:space="preserve">
<style type="text/css">
	.st0{fill:#FFFFFF;}
</style>
<g>
	<path class="st0" d="M55.16,152.24c-1.84,1.27-3.96,1.56-6.37,0.99c-2.41-0.57-4.53-1.84-6.37-3.82c-1.84-1.98-2.26-3.68-1.41-5.09
		c2.97-4.39,6.51-8.49,10.47-12.31c4.53-7.92,10.05-18.11,16.56-30.42S80.06,78.8,84.45,70.31c4.39-8.49,7.22-13.58,8.35-15.14
		c2.12-1.27,4.81-1.13,8.07,0.43c1.27,0.57,2.41,1.27,3.25,2.12c0.85,0.85,1.41,1.56,1.7,2.26c0.28,0.71,0.28,1.13,0.14,1.42
		c-3.82,5.52-12.31,20.8-25.47,45.85c11.6-10.19,21.37-21.37,29.43-33.68c0.57-0.85,1.13-1.27,1.7-1.42c0.57-0.14,0.85,0,0.99,0.57
		c0.14,0.57,0,1.13-0.28,1.84c-5.52,10.33-11.32,18.82-17.4,25.61c-6.08,6.79-13.02,13.3-20.8,19.67
		c-9.48,17.55-15.57,28.3-18.39,32.12L55.16,152.24z M108.35,31.72c0.53-2.37,1.85-4.48,3.96-6.2c2.11-1.72,4.35-2.64,6.73-2.64
		c2.37,0,4.22,0.79,5.54,2.51c1.32,1.71,1.71,3.69,1.19,6.07c-0.4,2.37-1.71,4.35-3.82,6.07c-2.11,1.71-4.35,2.51-6.73,2.51
		c-2.37,0-4.22-0.92-5.54-2.64s-1.71-3.82-1.32-6.2V31.72z"/>
	<path class="st0" d="M121.38,123.52c0-6.37,2.69-15.56,7.92-27.73v-0.85c0-0.14-0.28,0-0.71,0.42
		c-11.46,18.68-19.39,28.58-23.77,29.72c-2.26,0.71-4.67,0.14-7.08-1.7c-2.41-1.84-3.68-4.81-3.68-8.91
		c0-6.93,2.26-15.14,6.65-24.62c4.39-9.48,9.62-17.83,15.71-24.91c6.08-7.08,11.46-11.04,16.13-11.89
		c5.94-0.99,11.18,0.85,15.85,5.66l2.55-3.96c2.12-1.27,4.81-1.13,8.07,0.42c1.27,0.71,2.41,1.42,3.25,2.26
		c0.85,0.85,1.42,1.56,1.7,2.26c0.28,0.71,0.28,1.13,0,1.41c-1.56,2.41-3.54,5.66-5.94,9.76c-2.41,4.1-6.23,11.46-11.46,22.07
		c-5.24,10.61-9.06,19.95-11.46,28.02c-0.28,0.99-0.28,1.7,0.14,2.12c0.42,0.42,1.27,0.14,2.55-0.71c2.41-1.84,5.8-5.94,10.33-12.31
		c4.53-6.37,9.48-13.73,14.72-22.07c5.24-8.35,8.35-13.16,9.34-14.43c0.57-0.85,1.13-1.27,1.7-1.27c0.57,0,0.85,0.28,0.85,0.85
		c0,0.57-0.14,1.13-0.42,1.7c-21.79,38.49-35.94,58.16-42.31,59.01c-3.25,0.43-5.8-0.28-7.78-2.12s-2.97-4.53-2.97-8.07
		L121.38,123.52z M111.34,111.91c2.69-2.69,5.8-6.37,9.34-11.04c3.54-4.67,6.51-8.77,8.77-12.17c2.26-3.4,5.24-7.92,8.91-13.59
		c3.68-5.66,5.8-9.06,6.51-10.05l0.14-0.14c0.42-0.71,0.71-1.41,0.71-1.98c0-0.57-0.14-0.99-0.42-1.27
		c-0.28-0.28-0.71-0.43-1.13-0.43c-0.71,0-1.27,0-1.7,0.14c-3.4,0.57-9.48,7.22-18.25,19.81c-8.77,12.59-13.73,22.64-15,30
		c-0.14,0.43-0.14,0.71,0,0.99c0.14,0.28,0.28,0.43,0.57,0.43c0.28,0,0.71-0.28,1.27-0.85L111.34,111.91z"/>
	<path class="st0" d="M165.81,124.51c-0.71,1.27-2.26,1.7-4.53,1.42c-2.26-0.28-4.53-1.27-6.79-2.97c-2.26-1.7-3.11-3.25-2.69-4.67
		c3.54-9.48,10.9-25.19,22.07-47.12c3.96-7.36,6.93-12.45,8.77-15.28c2.12-1.41,4.81-1.27,8.07,0.28c1.27,0.71,2.41,1.42,3.25,2.26
		c0.85,0.85,1.42,1.56,1.56,2.12c0.14,0.57,0.14,0.99,0,1.41c-3.54,5.8-7.5,12.74-11.89,20.8c-0.28,0.71-0.28,1.13,0,1.27
		c0.28,0.14,0.71-0.14,1.41-0.85c14.29-18.54,25.47-27.88,33.39-27.88c3.11,0,5.66,0.71,7.64,2.12c1.98,1.41,2.55,2.83,1.84,4.39
		c-5.24,6.08-10.33,13.44-15.28,21.93c-0.28,0.71-0.28,1.27,0.14,1.7c0.42,0.43,0.99,0.28,1.7-0.28
		c6.37-8.07,12.73-14.86,19.1-20.52c6.37-5.66,11.6-8.77,15.85-9.48c0.14,0,0.42,0,0.71,0c0.28,0,0.57,0,0.71,0
		c0.57,0,1.27,0.14,1.98,0.28l2.69,0.85c2.12,0.99,3.25,2.12,3.25,3.4c0,1.27-1.13,3.4-3.4,6.37c-4.39,5.94-8.91,12.88-13.44,20.94
		c-4.39,8.49-8.36,16.83-11.74,25.05c-7.7,18.71-8.81,23.53-4.54,26.59c1.4,1.01,3.82,1.42,7.08,1.27c3.4-0.14-3.79,0.52,17.01-1.61
		c20.8-2.12,34.24-3.11,40.33-3.11c1.56,0,4.1,0.14,7.64,0.28c2.41,0.14,4.53,1.63,6.37,6.16c1.7,4.1,1.98,6.65,0.85,7.64
		c-0.28,0.14-0.57,0.28-0.85,0.28c-2.83-0.28-8.21-0.42-16.13-0.42c-5.8,0-17.97,0.42-36.51,1.27c-18.54,0.85-27.71-0.62-33.78-5.76
		c-7.83-6.62-9.04-15.02-5.57-27.79c0.35-1.3,0.85-2.41,1.13-3.4c0.28-0.99,0.85-2.26,1.56-3.96c0.71-1.7,1.27-2.97,1.7-3.96
		c0.42-0.99,1.13-2.55,2.12-4.53l2.41-4.53c0.57-0.99,1.41-2.69,2.69-4.95c1.27-2.26,2.12-3.96,2.55-4.95h0.14
		c2.97-5.38,6.51-11.18,10.47-17.26c0.85-1.56,0.99-2.26,0.57-2.26c-0.42,0-1.27,0.57-2.55,1.7c-6.93,6.08-14.43,14.86-22.64,26.32
		c-8.21,11.46-13.87,20.94-17.12,28.44c-0.57,2.12-2.69,2.41-6.51,0.99c-3.82-1.41-6.08-3.4-6.93-5.8c-0.42-0.85-0.42-1.7-0.14-2.55
		c1.56-4.67,6.37-14.58,14.29-29.72l8.21-14.01c2.69-4.67,3.4-6.79,2.12-6.51c-0.57,0.14-1.41,0.71-2.41,1.7
		c-6.08,5.94-13.16,14.72-21.23,26.32c-8.07,11.6-13.73,21.08-16.98,28.44l-0.42,1.27L165.81,124.51z"/>
	<g>
		<g>
			<path class="st0" d="M147.67,140.53c0.39-1.76,1.37-3.33,2.94-4.6c1.57-1.27,3.23-1.96,5-1.96c1.76,0,3.13,0.59,4.11,1.86
				c0.98,1.27,1.27,2.74,0.88,4.5c-0.29,1.76-1.27,3.23-2.84,4.5c-1.57,1.27-3.23,1.86-5,1.86c-1.76,0-3.13-0.68-4.11-1.96
				c-0.98-1.27-1.27-2.84-0.98-4.6V140.53z"/>
		</g>
	</g>
	<g>
		<g>
			<path class="st0" d="M177.77,140.53c0.39-1.76,1.37-3.33,2.94-4.6c1.57-1.27,3.23-1.96,5-1.96c1.76,0,3.13,0.59,4.11,1.86
				c0.98,1.27,1.27,2.74,0.88,4.5c-0.29,1.76-1.27,3.23-2.84,4.5c-1.57,1.27-3.23,1.86-5,1.86c-1.76,0-3.13-0.68-4.11-1.96
				c-0.98-1.27-1.27-2.84-0.98-4.6V140.53z"/>
		</g>
	</g>
	<g>
		<g>
			<path class="st0" d="M315.49,136.23c0.39-1.76,1.37-3.33,2.94-4.6c1.57-1.27,3.23-1.96,5-1.96c1.76,0,3.13,0.59,4.11,1.86
				c0.98,1.27,1.27,2.74,0.88,4.5c-0.29,1.76-1.27,3.23-2.84,4.5c-1.57,1.27-3.23,1.86-5,1.86c-1.76,0-3.13-0.68-4.11-1.96
				c-0.98-1.27-1.27-2.84-0.98-4.6V136.23z"/>
		</g>
	</g>
	<g>
		<g>
			<path class="st0" d="M299.32,56c0.26-1.18,0.92-2.24,1.97-3.09c1.05-0.86,2.17-1.32,3.35-1.32c1.18,0,2.1,0.39,2.76,1.25
				c0.66,0.85,0.85,1.84,0.59,3.03c-0.2,1.18-0.85,2.17-1.91,3.03c-1.05,0.86-2.17,1.25-3.35,1.25c-1.18,0-2.1-0.46-2.76-1.32
				c-0.66-0.85-0.86-1.91-0.66-3.09V56z"/>
		</g>
	</g>
	<path class="st0" d="M356.25,63.31c0.89-1.91,0.76-4.07-0.38-6.49c-1.14-2.42-2.42-3.94-3.81-4.7c-0.64,0.38-29.08,0.61-32.01-0.02
		c-3.56-0.76-5.85-0.64-6.74,0.25c-1.53,1.4-2.78,3.28-2.8,5.85c-0.04,5.86,29.06,4.22,29.06,4.22s-66.93,63.78-82.05,56.85
		c-0.49-0.22-0.38-1.02-0.13-1.91c1.14-4.83,5.82-16.63,9-23.37c3.18-6.74,6.23-12.72,9.15-17.8c2.92-5.09,30.52-51.1,32.93-54.28
		c0.25-0.25,0.25-0.64,0-1.27c-0.25-0.64-0.76-1.27-1.53-2.03c-0.76-0.76-3.58-2.33-4.72-2.97c-2.92-1.4-5.34-1.53-7.25-0.38
		c-2.03,2.42-22.51,37.11-24.41,40.29c-16.4,29.63-27.18,54.78-27.18,63.55c0,2.93,0.82,5.15,2.42,6.74
		c15.39,15.39,54.65-14.04,57.88-15.8c10.01-5.45,18.23-5.76,23.65-5.76c2.54,0,4.32,0.51,5.47,1.4c1.14,0.89,1.65,2.03,1.53,3.31
		c-0.25,2.42-3.71,9.51-6.51,11.42c-0.13,0.13-0.25,0.25-0.25,0.38c-0.25,1.14,1.02,2.03,3.94,2.67c3.56,0.76,5.85,0.64,6.74-0.25
		c1.53-1.4,6.61-10.15,6.99-12.69c0.38-3.31-0.76-6.36-3.31-9.16c-2.54-2.8-6.1-4.2-10.68-4.2c-3.43,0-12.02,0.64-15.58,1.91h-0.13
		l-0.25,0.13c-1.14,0.25-1.27-0.13-0.38-1.02L356.25,63.31z"/>
	<path class="st0" d="M202.28,36.41c-1.63-0.93-2.65-3.73-3.08-6.54c-0.17-1.14,0.5-2.64,1.66-2.57
		c25.5,1.64,134.1-0.42,155.58-1.74c3.79-0.23,4.67,3.7-1.7,7.1c-7.99,4.26-72.41,5.7-107.31,5.84
		C243.62,38.38,205.47,37.02,202.28,36.41z"/>
</g>
</svg>
