<?xml version="1.0" encoding="utf-8"?>
<!-- Generator: Adobe Illustrator 24.1.0, SVG Export Plug-In . SVG Version: 6.00 Build 0)  -->
<svg version="1.1" xmlns="http://www.w3.org/2000/svg" xmlns:xlink="http://www.w3.org/1999/xlink" x="0px" y="0px"
	 viewBox="0 0 150 150" style="enable-background:new 0 0 150 150;" xml:space="preserve">
<style type="text/css">
	.st0{fill:#d41620;}
	.st1{fill:#FFFFFF;}
</style>
<g id="Capa_1">
	<g>
		<circle class="st0" cx="75" cy="75" r="70"/>
		<g>
			<path class="st1" d="M48.1,108.55c-0.49,0.59-1.17,0.87-2.02,0.9c-0.85,0.03-2.24,0.21-2.45-0.69
				c-1.35-5.57,6.19-32.6,8.17-35.76c0.45-0.72,1.49-0.81,2.71-0.59c0.47,0.07,0.91,0.2,1.27,0.41c0.36,0.2,0.61,0.39,0.77,0.6
				c0.16,0.21,0.2,0.35,0.17,0.46c-2.53,3.32-8.33,27.27-8.46,34.53L48.1,108.55z M54.83,63.83c-0.04-0.83,0.21-1.65,0.75-2.41
				c0.54-0.76,1.2-1.27,1.99-1.48c0.79-0.21,1.47-0.12,2.06,0.33c0.59,0.45,0.9,1.07,0.94,1.9c0.08,0.82-0.17,1.6-0.72,2.35
				c-0.54,0.76-1.22,1.22-2,1.44c-0.79,0.21-1.48,0.08-2.07-0.37s-0.91-1.11-1-1.93L54.83,63.83z"/>
			<g>
				<g>
					<path class="st1" d="M92.31,106.11c0.2-0.91,0.7-1.71,1.51-2.36c0.8-0.65,1.66-1.01,2.56-1.01c0.9,0,1.61,0.3,2.11,0.96
						c0.5,0.65,0.65,1.41,0.45,2.31c-0.15,0.91-0.65,1.66-1.46,2.31c-0.8,0.65-1.66,0.96-2.56,0.96c-0.9,0-1.61-0.35-2.11-1.01
						c-0.5-0.65-0.65-1.46-0.5-2.36V106.11z"/>
				</g>
			</g>
			<g>
				<g>
					<path class="st1" d="M79.77,65.76c0.14-0.61,0.47-1.15,1.01-1.59c0.54-0.44,1.11-0.68,1.72-0.68c0.61,0,1.08,0.2,1.42,0.64
						c0.34,0.44,0.44,0.95,0.3,1.55c-0.1,0.61-0.44,1.11-0.98,1.55c-0.54,0.44-1.11,0.64-1.72,0.64c-0.61,0-1.08-0.24-1.42-0.68
						c-0.34-0.44-0.44-0.98-0.34-1.59V65.76z"/>
				</g>
			</g>
			<path class="st1" d="M110.15,68.92c0.39-0.99,0.26-2.08-0.39-3.26c-0.65-1.18-1.34-1.92-2.07-2.26
				c-0.31,0.21-14.67,1.19-16.17,0.95c-1.82-0.28-2.97-0.14-3.4,0.33c-0.73,0.75-1.31,1.74-1.24,3.04c0.16,2.96,14.8,1.25,14.8,1.25
				S79.05,93.3,67.03,99.87c-2.37,1.29-3.85,0.23-3.32-2.42c2.27-11.23,7.96-30.91,12.9-44.43c14.14-0.35,28.32-1.07,30.8-2.45
				c1.26-0.7,2.06-1.57,2.32-2.64c0.26-1.07,0.13-1.57-0.41-2.55c-0.82-1.47-5.1,0.34-5.17,0.59c-0.07,0.25-0.35,0.41-0.79,0.51
				c-2.13,1-13.03,1.32-24.75,1.32c0.71-1.76,1.39-3.34,2.03-4.67c0.1-0.16,0.07-0.35-0.13-0.65c-0.19-0.3-0.52-0.57-0.99-0.89
				c-0.47-0.31-2.07-0.83-2.71-1.04c-1.64-0.42-2.89-0.24-3.75,0.54c-0.28,0.5-1.3,3.23-2.55,6.65
				c-12.05-0.14-23.04-0.53-24.31-0.81c-0.76-0.08-2.08-0.27-4.02-0.55c-0.17-0.05-0.33,0.04-0.55,0.3
				c-0.21,0.26-0.36,0.13-0.51,0.64c-0.15,0.51-0.18,1.1-0.18,1.74c0.1,1.59,0.61,2.65,1.56,3.19c1.52,0.29,12,0.97,13.82,1.03
				c3.56-0.01,7.77-0.05,12.22-0.11c-1.84,5.12-3.59,10.1-3.91,10.97c-4.39,13.65-7.9,29.33-8.59,37.13
				c-0.78,8.8,6.3,10.37,13.72,6.07c8.79-5.1,15.83-15.59,25.6-15.72c1.29-0.02,2.2,0.13,2.8,0.54c1.38,0.95,0.3,3.74-0.53,5.43
				c-0.37,0.75-0.01,1.66,0.79,1.92c0.8,0.27,1.92,0.37,2.81,0.4c0.89,0.03,1.77-0.4,2.14-1.21c4.15-9.22,0.68-12.13-9.76-12.11
				c-0.51,0-0.83-0.49-0.47-0.85L110.15,68.92z"/>
		</g>
	</g>
</g>
<g id="Capa_2">
</g>
<g id="Capa_3">
</g>
<g id="Capa_4">
</g>
<g id="Capa_5">
</g>
<g id="Capa_6">
</g>
</svg>
