<?xml version="1.0" encoding="utf-8"?>
<!-- Generator: Adobe Illustrator 24.2.1, SVG Export Plug-In . SVG Version: 6.00 Build 0)  -->
<svg version="1.1" id="Layer_1" xmlns="http://www.w3.org/2000/svg" xmlns:xlink="http://www.w3.org/1999/xlink" x="0px" y="0px"
	 viewBox="0 0 150 150" style="enable-background:new 0 0 150 150;" xml:space="preserve">
<style type="text/css">
	.st0{fill:#FF6347;}
	.st1{fill:#FFFFFF;}
</style>
<g id="Capa_1">
	<g>
		<circle class="st0" cx="75" cy="75" r="70"/>
		<g>
			<path class="st1" d="M48.1,108.6c-0.5,0.6-1.2,0.9-2,0.9c-0.8,0-2.2,0.2-2.5-0.7c-1.3-5.6,6.2-32.6,8.2-35.8
				c0.5-0.7,1.5-0.8,2.7-0.6c0.5,0.1,0.9,0.2,1.3,0.4c0.4,0.2,0.6,0.4,0.8,0.6s0.2,0.3,0.2,0.5c-2.5,3.3-8.3,27.3-8.5,34.5
				L48.1,108.6z M54.8,63.8c0-0.8,0.2-1.7,0.8-2.4s1.2-1.3,2-1.5s1.5-0.1,2.1,0.3s0.9,1.1,0.9,1.9c0.1,0.8-0.2,1.6-0.7,2.3
				c-0.5,0.8-1.2,1.2-2,1.4c-0.8,0.2-1.5,0.1-2.1-0.4s-0.9-1.1-1-1.9L54.8,63.8z"/>
			<g>
				<g>
					<path class="st1" d="M92.3,106.1c0.2-0.9,0.7-1.7,1.5-2.4c0.8-0.7,1.7-1,2.6-1c0.9,0,1.6,0.3,2.1,1c0.5,0.7,0.7,1.4,0.4,2.3
						c-0.2,0.9-0.7,1.7-1.5,2.3c-0.8,0.7-1.7,1-2.6,1c-0.9,0-1.6-0.3-2.1-1c-0.5-0.7-0.7-1.5-0.5-2.4V106.1z"/>
				</g>
			</g>
			<g>
				<g>
					<path class="st1" d="M79.8,65.8c0.1-0.6,0.5-1.2,1-1.6c0.5-0.4,1.1-0.7,1.7-0.7s1.1,0.2,1.4,0.6c0.3,0.4,0.4,0.9,0.3,1.6
						c-0.1,0.6-0.4,1.1-1,1.6s-1.1,0.6-1.7,0.6s-1.1-0.2-1.4-0.7s-0.4-1-0.3-1.6L79.8,65.8L79.8,65.8z"/>
				</g>
			</g>
			<path class="st1" d="M110.2,68.9c0.4-1,0.3-2.1-0.4-3.3s-1.3-1.9-2.1-2.3c-0.3,0.2-14.7,1.2-16.2,1c-1.8-0.3-3-0.1-3.4,0.3
				c-0.7,0.8-1.3,1.7-1.2,3c0.2,3,14.8,1.2,14.8,1.2S79.1,93.3,67,99.9c-2.4,1.3-3.8,0.2-3.3-2.4c2.3-11.2,8-30.9,12.9-44.4
				c14.1-0.3,28.3-1.1,30.8-2.5c1.3-0.7,2.1-1.6,2.3-2.6s0.1-1.6-0.4-2.5c-0.8-1.5-5.1,0.3-5.2,0.6s-0.3,0.4-0.8,0.5
				c-2.1,1-13,1.3-24.8,1.3c0.7-1.8,1.4-3.3,2-4.7c0.1-0.2,0.1-0.3-0.1-0.7c-0.2-0.3-0.5-0.6-1-0.9c-0.5-0.3-2.1-0.8-2.7-1
				c-1.6-0.4-2.9-0.2-3.8,0.5c-0.3,0.5-1.3,3.2-2.6,6.7c-12-0.1-23-0.5-24.3-0.8c-0.8-0.1-2.1-0.3-4-0.5c-0.2,0-0.3,0-0.5,0.3
				c-0.2,0.3-0.4,0.1-0.5,0.6c-0.2,0.5-0.2,1.1-0.2,1.7c0.1,1.6,0.6,2.7,1.6,3.2c1.5,0.3,12,1,13.8,1c3.6,0,7.8,0,12.2-0.1
				c-1.8,5.1-3.6,10.1-3.9,11c-4.4,13.7-7.9,29.3-8.6,37.1c-0.8,8.8,6.3,10.4,13.7,6.1c8.8-5.1,15.8-15.6,25.6-15.7
				c1.3,0,2.2,0.1,2.8,0.5c1.4,0.9,0.3,3.7-0.5,5.4c-0.4,0.8,0,1.7,0.8,1.9c0.8,0.3,1.9,0.4,2.8,0.4s1.8-0.4,2.1-1.2
				c4.2-9.2,0.7-12.1-9.8-12.1c-0.5,0-0.8-0.5-0.5-0.8L110.2,68.9z"/>
		</g>
	</g>
</g>
<g id="Capa_2">
</g>
<g id="Capa_3">
</g>
<g id="Capa_4">
</g>
<g id="Capa_5">
</g>
<g id="Capa_6">
</g>
</svg>
